<svg xmlns="http://www.w3.org/2000/svg" viewBox="0 0 100 100">
  <defs>
    <filter id="fur">
      <feTurbulence type="fractalNoise" baseFrequency="0.8" numOctaves="3" result="noise" />
      <feDisplacementMap in="SourceGraphic" in2="noise" scale="2" xChannelSelector="R" yChannelSelector="G" />
    </filter>
  </defs>
  <g filter="url(#fur)">
    <!-- Body -->
    <ellipse cx="50" cy="65" rx="30" ry="25" fill="#333" />
    <path d="M 20 65 Q 50 90 80 65 Z" fill="#222" />
    <!-- Head -->
    <circle cx="50" cy="40" r="25" fill="#333" />
    <!-- Ears -->
    <polygon points="25,30 35,10 45,25" fill="#333" />
    <polygon points="75,30 65,10 55,25" fill="#333" />
    <polygon points="30,25 35,15 40,25" fill="#F4C2C2" />
    <polygon points="70,25 65,15 60,25" fill="#F4C2C2" />
    <!-- Tail (curled to side) -->
    <path d="M 75 75 Q 95 75 90 55 Q 85 45 75 50" fill="none" stroke="#333" stroke-width="12" stroke-linecap="round" />
    <!-- Eyes -->
    <circle cx="40" cy="40" r="4" fill="#FFF" />
    <circle cx="60" cy="40" r="4" fill="#FFF" />
    <circle cx="40" cy="40" r="2" fill="#000" />
    <circle cx="60" cy="40" r="2" fill="#000" />
    <!-- Nose/Mouth -->
    <polygon points="48,48 52,48 50,52" fill="#F4C2C2" />
    <path d="M 50 52 Q 45 56 40 54 M 50 52 Q 55 56 60 54" fill="none" stroke="#222" stroke-width="1.5" />
    <!-- Paws -->
    <circle cx="35" cy="85" r="6" fill="#444" />
    <circle cx="65" cy="85" r="6" fill="#444" />
  </g>
</svg>